REM DIRINDEX 1\6,1\2\7,1\2\8,1\2\9,1\3\10,1\3\11,1\4\12,1\4\13,1\4\14,1\5\15,1\5\16,1\5\17
REM DIRNAME folder01,folder02,folder03,folder04,folder05,folder06,folder07,folder08,folder09,folder10,folder11,folder12,folder13,folder14,folder15,folder16,folder17
TITLE ""
FILE "3Q_t2_0263-0278.mp3" MP3
  TRACK 01 AUDIO
    TITLE "7:cjc041_4202"
    INDEX 01 00:00:00
  TRACK 02 AUDIO
    TITLE "0:"
    INDEX 01 00:01:05
  TRACK 03 AUDIO
    TITLE "8:cjc041_4203"
    INDEX 01 00:01:64
  TRACK 04 AUDIO
    TITLE "0:"
    INDEX 01 00:04:40
  TRACK 05 AUDIO
    TITLE "9:cjc041_4204"
    INDEX 01 00:05:20
  TRACK 06 AUDIO
    TITLE "0:"
    INDEX 01 00:06:37
  TRACK 07 AUDIO
    TITLE "7:cjc041_4205"
    INDEX 01 00:08:19
  TRACK 08 AUDIO
    TITLE "0:"
    INDEX 01 00:09:34
  TRACK 09 AUDIO
    TITLE "8:cjc041_4206"
    INDEX 01 00:10:10
  TRACK 10 AUDIO
    TITLE "0:"
    INDEX 01 00:13:49
  TRACK 11 AUDIO
    TITLE "9:cjc041_4207"
    INDEX 01 00:14:27
  TRACK 12 AUDIO
    TITLE "0:"
    INDEX 01 00:15:44
  TRACK 13 AUDIO
    TITLE "7:cjc041_4208"
    INDEX 01 00:17:25
  TRACK 14 AUDIO
    TITLE "0:"
    INDEX 01 00:18:37
  TRACK 15 AUDIO
    TITLE "8:cjc041_4209"
    INDEX 01 00:19:15
  TRACK 16 AUDIO
    TITLE "0:"
    INDEX 01 00:21:49
  TRACK 17 AUDIO
    TITLE "9:cjc041_4210"
    INDEX 01 00:22:25
  TRACK 18 AUDIO
    TITLE "0:"
    INDEX 01 00:23:38
  TRACK 19 AUDIO
    TITLE "7:cjc041_4211"
    INDEX 01 00:25:23
  TRACK 20 AUDIO
    TITLE "0:"
    INDEX 01 00:26:28
  TRACK 21 AUDIO
    TITLE "8:cjc041_4212"
    INDEX 01 00:27:04
  TRACK 22 AUDIO
    TITLE "0:"
    INDEX 01 00:28:04
  TRACK 23 AUDIO
    TITLE "9:cjc041_4213"
    INDEX 01 00:28:59
  TRACK 24 AUDIO
    TITLE "0:"
    INDEX 01 00:29:64
  TRACK 25 AUDIO
    TITLE "7:cjc041_4214"
    INDEX 01 00:31:49
  TRACK 26 AUDIO
    TITLE "0:"
    INDEX 01 00:32:52
  TRACK 27 AUDIO
    TITLE "8:cjc041_4215"
    INDEX 01 00:33:30
  TRACK 28 AUDIO
    TITLE "0:"
    INDEX 01 00:39:13
  TRACK 29 AUDIO
    TITLE "9:cjc041_4216"
    INDEX 01 00:39:68
  TRACK 30 AUDIO
    TITLE "0:"
    INDEX 01 00:40:72
  TRACK 31 AUDIO
    TITLE "7:cjc041_4217"
    INDEX 01 00:42:55
  TRACK 32 AUDIO
    TITLE "0:"
    INDEX 01 00:43:70
  TRACK 33 AUDIO
    TITLE "8:cjc041_4218"
    INDEX 01 00:44:46
  TRACK 34 AUDIO
    TITLE "0:"
    INDEX 01 00:45:55
  TRACK 35 AUDIO
    TITLE "9:cjc041_4219"
    INDEX 01 00:46:35
  TRACK 36 AUDIO
    TITLE "0:"
    INDEX 01 00:47:52
  TRACK 37 AUDIO
    TITLE "7:cjc041_4220"
    INDEX 01 00:49:33
  TRACK 38 AUDIO
    TITLE "0:"
    INDEX 01 00:50:46
  TRACK 39 AUDIO
    TITLE "8:cjc041_4221"
    INDEX 01 00:51:32
  TRACK 40 AUDIO
    TITLE "0:"
    INDEX 01 00:53:11
  TRACK 41 AUDIO
    TITLE "9:cjc041_4222"
    INDEX 01 00:53:70
  TRACK 42 AUDIO
    TITLE "0:"
    INDEX 01 00:55:10
  TRACK 43 AUDIO
    TITLE "7:cjc041_4223"
    INDEX 01 00:56:69
  TRACK 44 AUDIO
    TITLE "0:"
    INDEX 01 00:58:01
  TRACK 45 AUDIO
    TITLE "8:cjc041_4224"
    INDEX 01 00:58:58
  TRACK 46 AUDIO
    TITLE "0:"
    INDEX 01 01:03:04
  TRACK 47 AUDIO
    TITLE "9:cjc041_4225"
    INDEX 01 01:03:63
  TRACK 48 AUDIO
    TITLE "0:"
    INDEX 01 01:04:68
  TRACK 49 AUDIO
    TITLE "7:cjc041_4226"
    INDEX 01 01:06:57
  TRACK 50 AUDIO
    TITLE "0:"
    INDEX 01 01:07:61
  TRACK 51 AUDIO
    TITLE "8:cjc041_4227"
    INDEX 01 01:08:42
  TRACK 52 AUDIO
    TITLE "0:"
    INDEX 01 01:09:67
  TRACK 53 AUDIO
    TITLE "9:cjc041_4228"
    INDEX 01 01:10:51
  TRACK 54 AUDIO
    TITLE "0:"
    INDEX 01 01:11:56
  TRACK 55 AUDIO
    TITLE "7:cjc041_4229"
    INDEX 01 01:13:42
  TRACK 56 AUDIO
    TITLE "0:"
    INDEX 01 01:14:70
  TRACK 57 AUDIO
    TITLE "8:cjc041_4230"
    INDEX 01 01:15:52
  TRACK 58 AUDIO
    TITLE "0:"
    INDEX 01 01:17:14
  TRACK 59 AUDIO
    TITLE "9:cjc041_4231"
    INDEX 01 01:17:67
  TRACK 60 AUDIO
    TITLE "0:"
    INDEX 01 01:19:19
  TRACK 61 AUDIO
    TITLE "7:cjc041_4232"
    INDEX 01 01:21:02
  TRACK 62 AUDIO
    TITLE "0:"
    INDEX 01 01:22:17
  TRACK 63 AUDIO
    TITLE "8:cjc041_4233"
    INDEX 01 01:22:74
  TRACK 64 AUDIO
    TITLE "0:"
    INDEX 01 01:25:19
  TRACK 65 AUDIO
    TITLE "9:cjc041_4234"
    INDEX 01 01:26:01
  TRACK 66 AUDIO
    TITLE "0:"
    INDEX 01 01:27:20
  TRACK 67 AUDIO
    TITLE "7:cjc041_4235"
    INDEX 01 01:29:05
  TRACK 68 AUDIO
    TITLE "0:"
    INDEX 01 01:30:18
  TRACK 69 AUDIO
    TITLE "8:cjc041_4236"
    INDEX 01 01:31:00
  TRACK 70 AUDIO
    TITLE "0:"
    INDEX 01 01:32:13
  TRACK 71 AUDIO
    TITLE "9:cjc041_4237"
    INDEX 01 01:32:72
  TRACK 72 AUDIO
    TITLE "0:"
    INDEX 01 01:34:16
  TRACK 73 AUDIO
    TITLE "7:cjc041_4238"
    INDEX 01 01:35:71
  TRACK 74 AUDIO
    TITLE "0:"
    INDEX 01 01:37:13
  TRACK 75 AUDIO
    TITLE "8:cjc041_4239"
    INDEX 01 01:37:71
  TRACK 76 AUDIO
    TITLE "0:"
    INDEX 01 01:40:05
  TRACK 77 AUDIO
    TITLE "9:cjc041_4240"
    INDEX 01 01:40:64
  TRACK 78 AUDIO
    TITLE "0:"
    INDEX 01 01:42:14
  TRACK 79 AUDIO
    TITLE "7:cjc041_4241"
    INDEX 01 01:43:70
  TRACK 80 AUDIO
    TITLE "0:"
    INDEX 01 01:45:14
  TRACK 81 AUDIO
    TITLE "8:cjc041_4242"
    INDEX 01 01:45:71
  TRACK 82 AUDIO
    TITLE "0:"
    INDEX 01 01:48:34
  TRACK 83 AUDIO
    TITLE "9:cjc041_4243"
    INDEX 01 01:49:08
  TRACK 84 AUDIO
    TITLE "0:"
    INDEX 01 01:50:35
  TRACK 85 AUDIO
    TITLE "7:cjc041_4244"
    INDEX 01 01:52:14
  TRACK 86 AUDIO
    TITLE "0:"
    INDEX 01 01:53:20
  TRACK 87 AUDIO
    TITLE "8:cjc041_4245"
    INDEX 01 01:53:72
  TRACK 88 AUDIO
    TITLE "0:"
    INDEX 01 01:55:01
  TRACK 89 AUDIO
    TITLE "9:cjc041_4246"
    INDEX 01 01:55:60
  TRACK 90 AUDIO
    TITLE "0:"
    INDEX 01 01:56:67
  TRACK 91 AUDIO
    TITLE "7:cjc041_4247"
    INDEX 01 01:58:54
  TRACK 92 AUDIO
    TITLE "0:"
    INDEX 01 02:00:10
  TRACK 93 AUDIO
    TITLE "8:cjc041_4248"
    INDEX 01 02:00:63
  TRACK 94 AUDIO
    TITLE "0:"
    INDEX 01 02:03:67
  TRACK 95 AUDIO
    TITLE "9:cjc041_4249"
    INDEX 01 02:04:45
  TRACK 96 AUDIO
    TITLE "0:"
    INDEX 01 02:06:03
